<svg width="20" height="20" viewBox="0 0 20 20" fill="none" xmlns="http://www.w3.org/2000/svg">
<g clip-path="url(#clip0_15_187)">
<path d="M12.4998 4.89999L11.6665 8.33332H16.5248C16.7836 8.33332 17.0388 8.39356 17.2702 8.50928C17.5016 8.62499 17.7029 8.793 17.8582 8.99999C18.0134 9.20698 18.1183 9.44728 18.1646 9.70185C18.2109 9.95642 18.1973 10.2183 18.1248 10.4667L16.1832 17.1333C16.0822 17.4795 15.8717 17.7836 15.5832 18C15.2947 18.2164 14.9438 18.3333 14.5832 18.3333H3.33317C2.89114 18.3333 2.46722 18.1577 2.15466 17.8452C1.8421 17.5326 1.6665 17.1087 1.6665 16.6667V9.99999C1.6665 9.55796 1.8421 9.13404 2.15466 8.82148C2.46722 8.50892 2.89114 8.33332 3.33317 8.33332H5.63317C5.94324 8.33316 6.24712 8.2465 6.51063 8.08309C6.77415 7.91968 6.98686 7.686 7.12484 7.40832L9.99984 1.66666C10.3928 1.67152 10.7796 1.76513 11.1313 1.94049C11.4831 2.11584 11.7906 2.36841 12.031 2.67933C12.2714 2.99024 12.4384 3.35146 12.5196 3.73599C12.6008 4.12053 12.594 4.51844 12.4998 4.89999Z" stroke="#16A34A" stroke-width="2" stroke-linecap="round" stroke-linejoin="round"/>
<path d="M5.8335 8.33334V18.3333" stroke="#16A34A" stroke-width="2" stroke-linecap="round" stroke-linejoin="round"/>
</g>
<defs>
<clipPath id="clip0_15_187">
<rect width="20" height="20" fill="white"/>
</clipPath>
</defs>
</svg>
