<svg width="20" height="20" viewBox="0 0 20 20" fill="none" xmlns="http://www.w3.org/2000/svg">
<path d="M13.3334 17.5V15.8333C13.3334 14.9493 12.9822 14.1014 12.3571 13.4763C11.732 12.8512 10.8841 12.5 10.0001 12.5H5.00008C4.11603 12.5 3.26818 12.8512 2.64306 13.4763C2.01794 14.1014 1.66675 14.9493 1.66675 15.8333V17.5" stroke="#6B7280" stroke-width="2" stroke-linecap="round" stroke-linejoin="round"/>
<path d="M13.3333 2.60666C14.048 2.79197 14.6811 3.20938 15.133 3.79338C15.5849 4.37738 15.8301 5.0949 15.8301 5.83333C15.8301 6.57175 15.5849 7.28927 15.133 7.87327C14.6811 8.45727 14.048 8.87468 13.3333 9.05999" stroke="#6B7280" stroke-width="2" stroke-linecap="round" stroke-linejoin="round"/>
<path d="M18.3333 17.5V15.8333C18.3327 15.0948 18.0869 14.3773 17.6344 13.7936C17.1819 13.2099 16.5484 12.793 15.8333 12.6083" stroke="#6B7280" stroke-width="2" stroke-linecap="round" stroke-linejoin="round"/>
<path d="M7.50008 9.16667C9.34103 9.16667 10.8334 7.67428 10.8334 5.83333C10.8334 3.99238 9.34103 2.5 7.50008 2.5C5.65913 2.5 4.16675 3.99238 4.16675 5.83333C4.16675 7.67428 5.65913 9.16667 7.50008 9.16667Z" stroke="#6B7280" stroke-width="2" stroke-linecap="round" stroke-linejoin="round"/>
</svg>
