<svg width="20" height="20" viewBox="0 0 20 20" fill="none" xmlns="http://www.w3.org/2000/svg">
<path d="M18.1083 15L11.4416 3.33335C11.2962 3.07685 11.0854 2.8635 10.8307 2.71507C10.576 2.56664 10.2864 2.48843 9.99161 2.48843C9.69678 2.48843 9.40724 2.56664 9.1525 2.71507C8.89777 2.8635 8.68697 3.07685 8.54161 3.33335L1.87494 15C1.72801 15.2545 1.65096 15.5433 1.65162 15.8371C1.65227 16.1309 1.73059 16.4194 1.87865 16.6732C2.0267 16.927 2.23923 17.1372 2.49469 17.2824C2.75014 17.4276 3.03945 17.5027 3.33327 17.5H16.6666C16.959 17.4997 17.2462 17.4225 17.4993 17.2761C17.7525 17.1297 17.9626 16.9193 18.1087 16.6659C18.2548 16.4126 18.3316 16.1253 18.3316 15.8329C18.3315 15.5405 18.2545 15.2533 18.1083 15Z" stroke="#6B7280" stroke-width="2" stroke-linecap="round" stroke-linejoin="round"/>
<path d="M10 7.5V10.8333" stroke="#6B7280" stroke-width="2" stroke-linecap="round" stroke-linejoin="round"/>
<path d="M10 14.1667H10.0083" stroke="#6B7280" stroke-width="2" stroke-linecap="round" stroke-linejoin="round"/>
</svg>
